<svg width="398" height="122" viewBox="0 0 398 122" fill="none" xmlns="http://www.w3.org/2000/svg">
<path d="M70.776 5.34399C71.7147 6.45333 72.184 7.60533 72.184 8.8C72.184 9.31199 72.1413 9.86666 72.056 10.464C72.056 10.976 72.0133 11.4453 71.928 11.872C71.672 12.8107 71.1173 13.7067 70.264 14.56C69.5813 15.072 68.6427 15.456 67.448 15.712C66.8507 15.8827 66.2533 16.0107 65.656 16.096C65.0587 16.1813 64.4187 16.3093 63.736 16.48C63.1387 16.5653 62.5413 16.608 61.944 16.608C61.3467 16.608 60.7067 16.608 60.024 16.608H53.496C51.96 16.6933 50.424 16.736 48.888 16.736C47.4373 16.736 45.9867 16.736 44.536 16.736C44.6213 19.3813 44.664 22.24 44.664 25.312C44.664 28.2987 44.6213 31.7973 44.536 35.808C44.536 39.8187 44.4933 44.4693 44.408 49.76C44.408 55.0507 44.408 61.1947 44.408 68.192V77.92C44.408 78.7733 44.4507 79.4133 44.536 79.84C44.536 80.1813 44.536 80.5227 44.536 80.864C44.536 81.12 44.4933 81.4613 44.408 81.888C44.2373 82.656 44.1093 83.552 44.024 84.576C44.024 85.0027 43.9813 85.4293 43.896 85.856C43.8107 86.1973 43.6827 86.5813 43.512 87.008C43.1707 87.3493 43 87.6053 43 87.776L42.616 88.544C42.1893 89.3973 41.3787 90.208 40.184 90.976C38.3067 91.9147 36.216 92.128 33.912 91.616C32.4613 91.4453 31.352 91.0613 30.584 90.464C29.816 89.696 29.2613 88.928 28.92 88.16C28.408 87.2213 28.1093 86.3253 28.024 85.472C27.768 84.704 27.64 83.8933 27.64 83.04V17.248C27.128 17.248 26.0613 17.248 24.44 17.248C22.8187 17.248 21.0693 17.248 19.192 17.248C17.4 17.1627 15.6933 17.0773 14.072 16.992C12.4507 16.9067 11.3413 16.8213 10.744 16.736C10.232 16.6507 9.42133 16.5227 8.312 16.352C7.288 16.1813 6.43467 16.0107 5.752 15.84C3.96 15.328 2.552 14.5173 1.528 13.408C0.589334 12.2987 0.12 11.0613 0.12 9.696C0.12 9.184 0.12 8.67199 0.12 8.16C0.12 7.648 0.205334 7.17867 0.376 6.752C0.632 5.728 1.31467 4.87466 2.424 4.19199C2.76533 3.936 3.27733 3.63733 3.96 3.296C4.728 2.86933 5.45333 2.57066 6.136 2.39999C7.16 2.05866 8.44 1.80266 9.976 1.632C10.6587 1.54666 11.3413 1.504 12.024 1.504C12.7067 1.504 13.432 1.504 14.2 1.504C17.1867 1.504 20.0027 1.504 22.648 1.504C25.3787 1.504 28.2373 1.46133 31.224 1.376C36.1733 1.29066 41.08 1.29066 45.944 1.376C50.8933 1.376 55.8 1.46133 60.664 1.632C61.7733 1.71733 62.84 1.84533 63.864 2.016C64.888 2.18666 65.912 2.48533 66.936 2.91199C67.704 3.168 68.4293 3.50933 69.112 3.936C69.7947 4.27733 70.3493 4.74666 70.776 5.34399ZM82.221 38.112C84.781 36.832 87.469 35.936 90.285 35.424C93.101 34.8267 95.8743 34.6987 98.605 35.04C101.421 35.296 104.109 36.0213 106.669 37.216C109.229 38.3253 111.618 39.9467 113.837 42.08C116.056 44.2987 117.762 46.7307 118.957 49.376C120.152 52.0213 121.005 54.9653 121.517 58.208C121.858 60.4267 122.413 62.4747 123.181 64.352C123.949 66.2293 124.76 68.1067 125.613 69.984C126.552 71.8613 127.405 73.7387 128.173 75.616C129.026 77.4933 129.709 79.456 130.221 81.504C130.648 83.4667 130.477 85.3867 129.709 87.264C129.026 89.056 127.576 90.1653 125.357 90.592C124.077 90.848 122.84 90.7627 121.645 90.336C120.536 89.824 119.512 89.1413 118.573 88.288C117.634 87.3493 116.781 86.368 116.013 85.344C115.33 84.2347 114.69 83.2107 114.093 82.272C112.13 84.832 109.997 86.8373 107.693 88.288C105.389 89.6533 102.616 90.5493 99.373 90.976C96.6423 91.3173 94.0397 91.4027 91.565 91.232C89.0903 91.0613 86.445 90.592 83.629 89.824C79.9597 88.8853 76.9303 87.264 74.541 84.96C72.237 82.5707 70.445 79.84 69.165 76.768C67.9703 73.6107 67.3303 70.24 67.245 66.656C67.1597 63.072 67.5863 59.5307 68.525 56.032C69.7197 51.424 71.5117 47.6693 73.901 44.768C76.2903 41.8667 79.0637 39.648 82.221 38.112ZM85.421 53.088C84.2263 54.2827 83.2877 55.6907 82.605 57.312C81.9223 58.9333 81.4957 60.64 81.325 62.432C81.2397 64.224 81.4103 66.016 81.837 67.808C82.2637 69.6 82.9463 71.1787 83.885 72.544C84.7383 73.7387 86.189 74.7627 88.237 75.616C90.285 76.384 92.4183 76.8533 94.637 77.024C97.197 77.1947 99.4157 76.512 101.293 74.976C103.256 73.44 104.706 71.52 105.645 69.216C106.669 66.8267 107.138 64.3093 107.053 61.664C106.968 58.9333 106.242 56.4587 104.877 54.24C103.853 52.6187 102.488 51.424 100.781 50.656C99.1597 49.888 97.4103 49.504 95.533 49.504C93.6557 49.4187 91.7783 49.7173 89.901 50.4C88.109 50.9973 86.6157 51.8933 85.421 53.088ZM171.462 69.472C169.841 68.448 168.006 67.6373 165.958 67.04C163.995 66.4427 161.947 65.888 159.814 65.376C157.766 64.864 155.761 64.3093 153.798 63.712C151.835 63.0293 150.043 62.0907 148.422 60.896C144.923 58.2507 142.875 55.008 142.278 51.168C141.766 47.2427 142.619 43.3173 144.838 39.392C146.033 37.344 147.611 35.68 149.574 34.4C151.537 33.0347 153.67 32.0107 155.974 31.328C158.363 30.56 160.795 30.1333 163.27 30.048C165.745 29.9627 168.091 30.0907 170.31 30.432C171.761 30.688 173.297 31.072 174.918 31.584C176.539 32.0107 178.033 32.608 179.398 33.376C180.849 34.144 182.129 35.1253 183.238 36.32C184.433 37.4293 185.286 38.8373 185.798 40.544C186.139 41.6533 186.182 42.72 185.926 43.744C185.755 44.768 185.329 45.6213 184.646 46.304C184.049 46.9867 183.238 47.4987 182.214 47.84C181.275 48.1813 180.251 48.2667 179.142 48.096C177.862 47.84 176.667 47.456 175.558 46.944C174.449 46.432 173.339 45.8773 172.23 45.28C171.121 44.6827 169.969 44.1707 168.774 43.744C167.665 43.3173 166.47 43.104 165.19 43.104C163.227 43.0187 161.606 43.36 160.326 44.128C159.046 44.896 158.15 45.8347 157.638 46.944C157.211 48.0533 157.254 49.248 157.766 50.528C158.363 51.808 159.558 52.9173 161.35 53.856C162.971 54.7093 164.763 55.392 166.726 55.904C168.689 56.416 170.609 56.928 172.486 57.44C174.449 57.952 176.326 58.5493 178.118 59.232C179.995 59.9147 181.659 60.8533 183.11 62.048C185.926 64.352 187.633 67.04 188.23 70.112C188.913 73.184 188.742 76.2133 187.718 79.2C186.694 82.1867 184.902 84.832 182.342 87.136C179.867 89.44 176.923 90.976 173.51 91.744C171.035 92.256 168.347 92.512 165.446 92.512C162.63 92.512 159.814 92.2133 156.998 91.616C154.267 91.0187 151.622 90.08 149.062 88.8C146.587 87.52 144.497 85.8987 142.79 83.936C141.595 82.5707 140.955 81.0347 140.87 79.328C140.87 77.536 141.211 76 141.894 74.72C142.662 73.3547 143.729 72.416 145.094 71.904C146.459 71.392 147.995 71.6907 149.702 72.8C151.067 73.7387 152.689 74.6773 154.566 75.616C156.443 76.4693 158.321 77.152 160.198 77.664C162.075 78.176 163.867 78.432 165.574 78.432C167.366 78.432 168.902 78.048 170.182 77.28C172.059 76.0853 173.041 74.72 173.126 73.184C173.211 71.5627 172.657 70.3253 171.462 69.472ZM224.467 62.56C226.344 64.5227 227.71 65.9733 228.563 66.912C229.502 67.7653 230.142 68.4053 230.483 68.832C230.91 69.2587 231.208 69.5147 231.379 69.6C231.55 69.6853 231.848 69.9413 232.275 70.368C232.702 70.7947 233.384 71.4773 234.323 72.416C235.262 73.2693 236.67 74.6773 238.547 76.64C240.083 78.176 241.32 79.968 242.259 82.016C243.283 83.9787 243.198 86.112 242.003 88.416C241.32 89.6107 240.552 90.464 239.699 90.976C238.846 91.4027 237.907 91.5733 236.883 91.488C235.944 91.4027 234.92 91.104 233.811 90.592C232.787 90.08 231.763 89.44 230.739 88.672C228.776 87.2213 226.899 85.5573 225.107 83.68C223.315 81.7173 221.864 80.224 220.755 79.2C219.987 78.432 219.518 77.92 219.347 77.664C219.176 77.4933 219.006 77.3653 218.835 77.28C218.664 77.1093 218.494 76.9387 218.323 76.768C217.726 76.1707 217.086 75.5733 216.403 74.976C215.72 74.3787 215.038 73.7387 214.355 73.056V78.048C214.355 78.9867 214.398 79.6693 214.483 80.096C214.483 80.9493 214.44 81.5893 214.355 82.016C214.099 82.9547 213.971 83.8507 213.971 84.704C213.886 85.1307 213.8 85.5573 213.715 85.984C213.63 86.3253 213.502 86.7093 213.331 87.136C213.246 87.3067 213.16 87.4347 213.075 87.52C213.075 87.6053 213.075 87.7333 213.075 87.904C212.99 88.0747 212.904 88.2027 212.819 88.288C212.819 88.3733 212.776 88.5013 212.691 88.672C212.264 89.5253 211.582 90.336 210.643 91.104C209.022 92.0427 207.016 92.2987 204.627 91.872C203.347 91.616 202.366 91.1467 201.683 90.464C200.915 89.952 200.403 89.2267 200.147 88.288C199.976 87.8613 199.806 87.4347 199.635 87.008C199.55 86.496 199.422 86.0267 199.251 85.6C199.08 85.1733 198.995 84.7893 198.995 84.448C198.995 84.0213 198.995 83.68 198.995 83.424V10.592C198.995 10.08 198.995 9.568 198.995 9.056C198.995 8.544 199.038 8.032 199.123 7.52C199.208 7.008 199.294 6.53867 199.379 6.112C199.55 5.6 199.72 5.13066 199.891 4.70399C200.232 3.85066 200.659 3.168 201.171 2.656C201.598 2.22933 202.024 1.93066 202.451 1.75999C202.963 1.504 203.432 1.29066 203.859 1.12C204.286 1.03466 204.755 0.991997 205.267 0.991997C205.864 0.906665 206.419 0.863998 206.931 0.863998C208.126 0.863998 209.32 1.20533 210.515 1.88799C211.624 2.65599 212.435 3.63733 212.947 4.83199C213.63 6.45333 213.971 8.03199 213.971 9.56799C214.056 10.4213 214.142 11.744 214.227 13.536C214.312 15.2427 214.355 16.5227 214.355 17.376V17.888C214.44 20.704 214.483 23.392 214.483 25.952C214.483 28.512 214.483 31.2853 214.483 34.272C214.398 37.2587 214.355 40.1173 214.355 42.848C214.355 45.4933 214.355 48.1387 214.355 50.784V52.192C215.038 51.5093 215.72 50.8693 216.403 50.272C217.086 49.6747 217.726 49.0347 218.323 48.352C218.664 48.096 219.006 47.7973 219.347 47.456L220.755 46.048C221.864 44.9387 223.315 43.4453 225.107 41.568C226.899 39.6053 228.776 37.8987 230.739 36.448C232.872 34.912 234.92 33.9733 236.883 33.632C238.931 33.2907 240.638 34.3147 242.003 36.704C243.198 39.008 243.283 41.184 242.259 43.232C241.32 45.1947 240.083 47.0293 238.547 48.736C236.67 50.6987 235.262 52.1493 234.323 53.088C233.384 53.9413 232.702 54.5813 232.275 55.008C231.848 55.3493 231.55 55.5627 231.379 55.648C231.208 55.7333 230.91 55.9893 230.483 56.416C230.142 56.7573 229.502 57.3973 228.563 58.336C227.71 59.1893 226.344 60.5973 224.467 62.56ZM269.373 43.488C269.373 45.8773 269.373 48.5653 269.373 51.552C269.458 54.5387 269.501 57.6533 269.501 60.896C269.501 64.0533 269.501 67.2107 269.501 70.368C269.501 73.44 269.458 76.2987 269.373 78.944C269.288 80.224 269.16 81.632 268.989 83.168C268.818 84.6187 268.477 85.984 267.965 87.264C267.453 88.544 266.642 89.6107 265.533 90.464C264.509 91.232 263.101 91.5733 261.309 91.488C258.664 91.3173 256.744 90.1653 255.549 88.032C254.44 85.8987 253.8 82.912 253.629 79.072C253.629 77.1093 253.586 74.848 253.501 72.288C253.501 69.728 253.458 67.1253 253.373 64.48C253.373 61.8347 253.373 59.2747 253.373 56.8C253.373 54.24 253.373 51.936 253.373 49.888C253.373 48.6933 253.33 47.2427 253.245 45.536C253.245 43.8293 253.288 42.08 253.373 40.288C253.458 38.496 253.672 36.7893 254.013 35.168C254.354 33.4613 254.909 32.0533 255.677 30.944C256.274 30.2613 257.128 29.7493 258.237 29.408C259.346 28.9813 260.498 28.768 261.693 28.768C262.973 28.768 264.168 28.9813 265.277 29.408C266.472 29.8347 267.325 30.432 267.837 31.2C268.178 31.712 268.434 32.4373 268.605 33.376C268.776 34.3147 268.904 35.3813 268.989 36.576C269.16 37.6853 269.245 38.88 269.245 40.16C269.33 41.3547 269.373 42.464 269.373 43.488ZM264.509 17.632C261.864 18.3147 259.645 18.0587 257.853 16.864C256.146 15.584 255.08 13.7067 254.653 11.232C254.312 9.44 254.44 7.86133 255.037 6.49599C255.634 5.13066 256.53 4.10666 257.725 3.424C258.92 2.656 260.285 2.31466 261.821 2.39999C263.357 2.48533 264.893 3.08266 266.429 4.19199C267.88 5.216 268.904 6.41066 269.501 7.77599C270.184 9.14133 270.397 10.464 270.141 11.744C269.97 13.024 269.416 14.2187 268.477 15.328C267.538 16.352 266.216 17.12 264.509 17.632ZM282.123 46.304C282.123 44.3413 282.08 42.2507 281.995 40.032C281.995 37.8133 282.379 35.808 283.147 34.016C283.83 32.3947 284.939 31.2427 286.475 30.56C288.096 29.792 289.675 29.6213 291.211 30.048C292.747 30.304 293.942 30.7733 294.795 31.456C295.648 32.1387 296.246 32.9493 296.587 33.888C297.014 34.7413 297.27 35.7653 297.355 36.96C297.44 38.0693 297.526 39.1787 297.611 40.288C298.464 38.752 299.531 37.5147 300.811 36.576C302.091 35.6373 303.414 34.8693 304.779 34.272C306.144 33.6747 307.424 33.248 308.619 32.992C309.899 32.736 310.88 32.608 311.563 32.608C314.806 32.608 318.006 33.3333 321.163 34.784C324.406 36.1493 327.094 38.112 329.227 40.672C330.422 42.208 331.318 43.8293 331.915 45.536C332.598 47.1573 333.067 48.864 333.323 50.656C333.664 52.448 333.878 54.2827 333.963 56.16C334.048 57.952 334.134 59.7867 334.219 61.664C334.646 67.1253 334.646 72.544 334.219 77.92C334.134 79.0293 334.091 80.3093 334.091 81.76C334.091 83.2107 333.963 84.6613 333.707 86.112C333.536 87.4773 333.152 88.7147 332.555 89.824C332.043 90.848 331.147 91.488 329.867 91.744C328.075 92.1707 326.582 92.256 325.387 92C324.278 91.8293 323.382 91.4453 322.699 90.848C322.016 90.2507 321.504 89.4827 321.163 88.544C320.822 87.6053 320.523 86.5387 320.267 85.344C320.096 84.4053 319.926 83.3387 319.755 82.144C319.67 80.864 319.584 79.584 319.499 78.304C319.499 77.024 319.456 75.7867 319.371 74.592C319.371 73.312 319.371 72.16 319.371 71.136C319.371 69.5147 319.328 67.7227 319.243 65.76C319.158 63.7973 319.158 61.9627 319.243 60.256C319.243 56.2453 318.176 53.216 316.043 51.168C313.995 49.0347 311.179 48.1387 307.595 48.48C304.864 48.8213 302.475 49.9307 300.427 51.808C298.379 53.6 297.398 55.9467 297.483 58.848C297.483 59.9573 297.483 60.9813 297.483 61.92C297.483 62.8587 297.44 63.7973 297.355 64.736C297.355 65.6747 297.355 66.6987 297.355 67.808C297.355 68.9173 297.355 70.1547 297.355 71.52C297.355 74.336 297.355 77.3227 297.355 80.48C297.355 83.552 296.971 86.0693 296.203 88.032C295.52 90.08 294.368 91.488 292.747 92.256C291.126 93.024 289.206 92.8107 286.987 91.616C286.048 91.104 285.28 90.4213 284.683 89.568C284.171 88.6293 283.744 87.648 283.403 86.624C283.147 85.6 282.976 84.576 282.891 83.552C282.806 82.4427 282.72 81.4187 282.635 80.48C282.379 77.664 282.208 75.0613 282.123 72.672C282.123 70.1973 282.123 67.552 282.123 64.736V46.304ZM397.99 67.808C397.99 70.5387 397.905 73.4827 397.734 76.64C397.649 79.7973 397.521 82.7413 397.35 85.472C397.35 88.032 397.222 90.592 396.966 93.152C396.795 95.3707 396.454 97.76 395.942 100.32C395.43 102.965 394.705 105.397 393.766 107.616C392.571 110.517 390.95 112.992 388.902 115.04C386.854 117.173 384.209 118.709 380.966 119.648C378.235 120.331 375.675 120.757 373.286 120.928C370.897 121.184 368.337 121.141 365.606 120.8C363.814 120.544 361.894 120.032 359.846 119.264C357.798 118.581 355.878 117.685 354.086 116.576C352.294 115.467 350.715 114.144 349.35 112.608C347.985 111.157 347.046 109.493 346.534 107.616C345.937 105.312 345.894 103.307 346.406 101.6C347.003 99.8933 347.899 98.656 349.094 97.888C350.289 97.12 351.697 96.992 353.318 97.504C354.939 98.016 356.475 99.3387 357.926 101.472C358.95 103.008 360.443 104.245 362.406 105.184C364.369 106.123 366.459 106.677 368.678 106.848C370.897 107.019 373.03 106.72 375.078 105.952C377.211 105.269 378.875 104.032 380.07 102.24C380.923 100.96 381.521 99.1253 381.862 96.736C382.289 94.3467 382.545 92 382.63 89.696C378.278 91.488 373.798 92.1707 369.19 91.744C364.667 91.232 360.529 89.824 356.774 87.52C353.105 85.1307 350.118 81.9733 347.814 78.048C345.595 74.0373 344.657 69.5147 344.998 64.48C345.254 60.128 346.15 56.032 347.686 52.192C349.307 48.352 351.953 45.152 355.622 42.592C358.609 40.544 361.979 39.2213 365.734 38.624C369.489 37.9413 373.115 37.6 376.614 37.6C378.662 37.6 380.667 37.6 382.63 37.6C384.678 37.6 386.555 37.856 388.262 38.368C389.969 38.88 391.505 39.7333 392.87 40.928C394.235 42.1227 395.259 43.872 395.942 46.176C397.051 49.76 397.649 53.3013 397.734 56.8C397.905 60.2987 397.99 63.968 397.99 67.808ZM373.286 78.432C374.139 78.432 374.95 78.3467 375.718 78.176C376.571 78.0053 377.382 77.792 378.15 77.536C379.601 77.024 380.667 76.3413 381.35 75.488C382.118 74.6347 382.63 73.696 382.886 72.672C383.142 71.5627 383.227 70.368 383.142 69.088C383.142 67.808 383.142 66.4853 383.142 65.12C383.142 64.0107 383.099 62.7733 383.014 61.408C383.014 60.0427 382.929 58.7627 382.758 57.568C382.587 56.288 382.331 55.1787 381.99 54.24C381.649 53.3013 381.137 52.704 380.454 52.448C379.259 52.1067 377.894 51.8933 376.358 51.808C374.822 51.6373 373.286 51.6373 371.75 51.808C370.214 51.8933 368.721 52.192 367.27 52.704C365.905 53.1307 364.753 53.728 363.814 54.496C362.534 55.6053 361.553 56.9707 360.87 58.592C360.187 60.2133 359.761 61.92 359.59 63.712C359.505 65.504 359.633 67.2533 359.974 68.96C360.401 70.6667 361.126 72.2027 362.15 73.568C363.345 75.2747 364.966 76.512 367.014 77.28C369.062 78.048 371.153 78.432 373.286 78.432Z" fill="white"/>
</svg>
